<mxfile host="app.diagrams.net" modified="2024-04-02T14:38:57.249Z" agent="Mozilla/5.0 (Windows NT 10.0; Win64; x64) AppleWebKit/537.36 (KHTML, like Gecko) Chrome/123.0.0.0 Safari/537.36" etag="rv1Iu169F3Bl7iH8sPhe" version="24.2.1" type="device">
  <diagram name="PÃ¡gina-1" id="wloXiehY2cg9V0MK5eM6">
    <mxGraphModel dx="472" dy="770" grid="1" gridSize="10" guides="1" tooltips="1" connect="1" arrows="1" fold="1" page="1" pageScale="1" pageWidth="827" pageHeight="1169" math="0" shadow="0">
      <root>
        <mxCell id="0" />
        <mxCell id="1" parent="0" />
        <mxCell id="k0Mtcrx5Jlp9DSkXlw2T-3" style="edgeStyle=orthogonalEdgeStyle;rounded=0;orthogonalLoop=1;jettySize=auto;html=1;exitX=0;exitY=0.5;exitDx=0;exitDy=0;entryX=1;entryY=0.5;entryDx=0;entryDy=0;" parent="1" source="k0Mtcrx5Jlp9DSkXlw2T-1" target="k0Mtcrx5Jlp9DSkXlw2T-4" edge="1">
          <mxGeometry relative="1" as="geometry">
            <mxPoint x="290" y="110.0689655172414" as="targetPoint" />
          </mxGeometry>
        </mxCell>
        <mxCell id="k0Mtcrx5Jlp9DSkXlw2T-8" style="edgeStyle=orthogonalEdgeStyle;rounded=0;orthogonalLoop=1;jettySize=auto;html=1;entryX=0.5;entryY=0;entryDx=0;entryDy=0;" parent="1" source="k0Mtcrx5Jlp9DSkXlw2T-1" target="k0Mtcrx5Jlp9DSkXlw2T-7" edge="1">
          <mxGeometry relative="1" as="geometry" />
        </mxCell>
        <mxCell id="k0Mtcrx5Jlp9DSkXlw2T-1" value="&lt;font style=&quot;font-size: 18px;&quot;&gt;1&lt;/font&gt;" style="ellipse;whiteSpace=wrap;html=1;aspect=fixed;" parent="1" vertex="1">
          <mxGeometry x="444" y="80" width="60" height="60" as="geometry" />
        </mxCell>
        <mxCell id="k0Mtcrx5Jlp9DSkXlw2T-2" value="" style="endArrow=classic;html=1;rounded=0;entryX=0.5;entryY=0;entryDx=0;entryDy=0;" parent="1" target="k0Mtcrx5Jlp9DSkXlw2T-1" edge="1">
          <mxGeometry width="50" height="50" relative="1" as="geometry">
            <mxPoint x="474" y="50" as="sourcePoint" />
            <mxPoint x="520" as="targetPoint" />
          </mxGeometry>
        </mxCell>
        <mxCell id="k0Mtcrx5Jlp9DSkXlw2T-4" value="&lt;font style=&quot;font-size: 18px;&quot;&gt;2&lt;/font&gt;" style="ellipse;whiteSpace=wrap;html=1;aspect=fixed;strokeWidth=3;" parent="1" vertex="1">
          <mxGeometry x="180" y="80" width="60" height="60" as="geometry" />
        </mxCell>
        <mxCell id="k0Mtcrx5Jlp9DSkXlw2T-5" value="isEmpty() || data.compareTo(elem) &amp;lt; 0" style="text;html=1;align=center;verticalAlign=middle;resizable=0;points=[];autosize=1;strokeColor=none;fillColor=none;fontSize=10;" parent="1" vertex="1">
          <mxGeometry x="244" y="80" width="200" height="30" as="geometry" />
        </mxCell>
        <mxCell id="k0Mtcrx5Jlp9DSkXlw2T-6" value="return" style="text;html=1;align=center;verticalAlign=middle;resizable=0;points=[];autosize=1;strokeColor=none;fillColor=none;" parent="1" vertex="1">
          <mxGeometry x="120" y="90" width="60" height="30" as="geometry" />
        </mxCell>
        <mxCell id="k0Mtcrx5Jlp9DSkXlw2T-11" style="edgeStyle=orthogonalEdgeStyle;rounded=0;orthogonalLoop=1;jettySize=auto;html=1;entryX=1;entryY=0.5;entryDx=0;entryDy=0;" parent="1" source="k0Mtcrx5Jlp9DSkXlw2T-7" target="k0Mtcrx5Jlp9DSkXlw2T-10" edge="1">
          <mxGeometry relative="1" as="geometry" />
        </mxCell>
        <mxCell id="k0Mtcrx5Jlp9DSkXlw2T-15" style="edgeStyle=orthogonalEdgeStyle;rounded=0;orthogonalLoop=1;jettySize=auto;html=1;exitX=0.5;exitY=1;exitDx=0;exitDy=0;entryX=0.5;entryY=0;entryDx=0;entryDy=0;" parent="1" source="k0Mtcrx5Jlp9DSkXlw2T-7" target="k0Mtcrx5Jlp9DSkXlw2T-14" edge="1">
          <mxGeometry relative="1" as="geometry" />
        </mxCell>
        <mxCell id="k0Mtcrx5Jlp9DSkXlw2T-7" value="&lt;div&gt;&lt;span style=&quot;font-size: 18px;&quot;&gt;3&lt;/span&gt;&lt;/div&gt;" style="ellipse;whiteSpace=wrap;html=1;aspect=fixed;" parent="1" vertex="1">
          <mxGeometry x="444" y="190" width="60" height="60" as="geometry" />
        </mxCell>
        <mxCell id="k0Mtcrx5Jlp9DSkXlw2T-9" value="~ (isEmpty() || data.compareTo(elem) &amp;lt; 0)" style="text;html=1;align=center;verticalAlign=middle;resizable=0;points=[];autosize=1;strokeColor=none;fillColor=none;fontSize=10;" parent="1" vertex="1">
          <mxGeometry x="374" y="150" width="220" height="30" as="geometry" />
        </mxCell>
        <mxCell id="k0Mtcrx5Jlp9DSkXlw2T-10" value="&lt;font style=&quot;font-size: 18px;&quot;&gt;4&lt;/font&gt;" style="ellipse;whiteSpace=wrap;html=1;aspect=fixed;strokeWidth=3;" parent="1" vertex="1">
          <mxGeometry x="190" y="190" width="60" height="60" as="geometry" />
        </mxCell>
        <mxCell id="k0Mtcrx5Jlp9DSkXlw2T-12" value="isLeaf()" style="text;html=1;align=center;verticalAlign=middle;resizable=0;points=[];autosize=1;strokeColor=none;fillColor=none;fontSize=10;" parent="1" vertex="1">
          <mxGeometry x="320" y="190" width="60" height="30" as="geometry" />
        </mxCell>
        <mxCell id="k0Mtcrx5Jlp9DSkXlw2T-13" value="return" style="text;html=1;align=center;verticalAlign=middle;resizable=0;points=[];autosize=1;strokeColor=none;fillColor=none;" parent="1" vertex="1">
          <mxGeometry x="130" y="205" width="60" height="30" as="geometry" />
        </mxCell>
        <mxCell id="k0Mtcrx5Jlp9DSkXlw2T-18" style="edgeStyle=orthogonalEdgeStyle;rounded=0;orthogonalLoop=1;jettySize=auto;html=1;exitX=0;exitY=0.5;exitDx=0;exitDy=0;entryX=1;entryY=0.5;entryDx=0;entryDy=0;" parent="1" source="k0Mtcrx5Jlp9DSkXlw2T-14" target="k0Mtcrx5Jlp9DSkXlw2T-17" edge="1">
          <mxGeometry relative="1" as="geometry" />
        </mxCell>
        <mxCell id="k0Mtcrx5Jlp9DSkXlw2T-21" style="edgeStyle=orthogonalEdgeStyle;rounded=0;orthogonalLoop=1;jettySize=auto;html=1;exitX=0.5;exitY=1;exitDx=0;exitDy=0;" parent="1" source="k0Mtcrx5Jlp9DSkXlw2T-14" edge="1">
          <mxGeometry relative="1" as="geometry">
            <mxPoint x="474.1034482758621" y="399.9999999999999" as="targetPoint" />
          </mxGeometry>
        </mxCell>
        <mxCell id="k0Mtcrx5Jlp9DSkXlw2T-14" value="&lt;div&gt;&lt;span style=&quot;font-size: 18px;&quot;&gt;5&lt;/span&gt;&lt;/div&gt;" style="ellipse;whiteSpace=wrap;html=1;aspect=fixed;" parent="1" vertex="1">
          <mxGeometry x="444" y="300" width="60" height="60" as="geometry" />
        </mxCell>
        <mxCell id="k0Mtcrx5Jlp9DSkXlw2T-16" value="~isLeaf()" style="text;html=1;align=center;verticalAlign=middle;resizable=0;points=[];autosize=1;strokeColor=none;fillColor=none;fontSize=10;" parent="1" vertex="1">
          <mxGeometry x="444" y="260" width="60" height="30" as="geometry" />
        </mxCell>
        <mxCell id="k0Mtcrx5Jlp9DSkXlw2T-51" style="edgeStyle=orthogonalEdgeStyle;rounded=0;orthogonalLoop=1;jettySize=auto;html=1;entryX=0;entryY=0.5;entryDx=0;entryDy=0;" parent="1" source="k0Mtcrx5Jlp9DSkXlw2T-17" target="k0Mtcrx5Jlp9DSkXlw2T-44" edge="1">
          <mxGeometry relative="1" as="geometry">
            <Array as="points">
              <mxPoint x="180" y="770" />
            </Array>
          </mxGeometry>
        </mxCell>
        <mxCell id="k0Mtcrx5Jlp9DSkXlw2T-17" value="&lt;div&gt;&lt;span style=&quot;font-size: 18px;&quot;&gt;6&lt;/span&gt;&lt;/div&gt;" style="ellipse;whiteSpace=wrap;html=1;aspect=fixed;" parent="1" vertex="1">
          <mxGeometry x="150" y="300" width="60" height="60" as="geometry" />
        </mxCell>
        <mxCell id="k0Mtcrx5Jlp9DSkXlw2T-19" value="data.compareTo(elem) == 0" style="text;html=1;align=center;verticalAlign=middle;resizable=0;points=[];autosize=1;strokeColor=none;fillColor=none;fontSize=10;" parent="1" vertex="1">
          <mxGeometry x="294" y="300" width="150" height="30" as="geometry" />
        </mxCell>
        <mxCell id="k0Mtcrx5Jlp9DSkXlw2T-20" value="data=children[0].data&lt;div&gt;children[0].delete(data)&lt;/div&gt;" style="text;html=1;align=center;verticalAlign=middle;resizable=0;points=[];autosize=1;strokeColor=none;fillColor=none;" parent="1" vertex="1">
          <mxGeometry x="5" y="295" width="150" height="40" as="geometry" />
        </mxCell>
        <mxCell id="k0Mtcrx5Jlp9DSkXlw2T-26" style="edgeStyle=orthogonalEdgeStyle;rounded=0;orthogonalLoop=1;jettySize=auto;html=1;entryX=1;entryY=0.5;entryDx=0;entryDy=0;" parent="1" source="k0Mtcrx5Jlp9DSkXlw2T-22" target="k0Mtcrx5Jlp9DSkXlw2T-25" edge="1">
          <mxGeometry relative="1" as="geometry" />
        </mxCell>
        <mxCell id="k0Mtcrx5Jlp9DSkXlw2T-30" style="edgeStyle=orthogonalEdgeStyle;rounded=0;orthogonalLoop=1;jettySize=auto;html=1;exitX=0.5;exitY=1;exitDx=0;exitDy=0;entryX=0.5;entryY=0;entryDx=0;entryDy=0;" parent="1" source="k0Mtcrx5Jlp9DSkXlw2T-22" target="k0Mtcrx5Jlp9DSkXlw2T-29" edge="1">
          <mxGeometry relative="1" as="geometry" />
        </mxCell>
        <mxCell id="k0Mtcrx5Jlp9DSkXlw2T-22" value="&lt;div&gt;&lt;span style=&quot;font-size: 18px;&quot;&gt;7&lt;/span&gt;&lt;/div&gt;" style="ellipse;whiteSpace=wrap;html=1;aspect=fixed;" parent="1" vertex="1">
          <mxGeometry x="444" y="400" width="60" height="60" as="geometry" />
        </mxCell>
        <mxCell id="k0Mtcrx5Jlp9DSkXlw2T-23" value="~(data.compareTo(elem) == 0)" style="text;html=1;align=center;verticalAlign=middle;resizable=0;points=[];autosize=1;strokeColor=none;fillColor=none;fontSize=10;" parent="1" vertex="1">
          <mxGeometry x="389" y="360" width="170" height="30" as="geometry" />
        </mxCell>
        <mxCell id="k0Mtcrx5Jlp9DSkXlw2T-24" value="int position = proposePosition(elem)" style="text;html=1;align=center;verticalAlign=middle;resizable=0;points=[];autosize=1;strokeColor=none;fillColor=none;fontSize=12;" parent="1" vertex="1">
          <mxGeometry x="495" y="415" width="220" height="30" as="geometry" />
        </mxCell>
        <mxCell id="k0Mtcrx5Jlp9DSkXlw2T-25" value="&lt;div&gt;&lt;span style=&quot;font-size: 18px;&quot;&gt;8&lt;/span&gt;&lt;/div&gt;" style="ellipse;whiteSpace=wrap;html=1;aspect=fixed;strokeWidth=3;" parent="1" vertex="1">
          <mxGeometry x="294" y="400" width="60" height="60" as="geometry" />
        </mxCell>
        <mxCell id="k0Mtcrx5Jlp9DSkXlw2T-27" value="position &amp;lt; 0" style="text;html=1;align=center;verticalAlign=middle;resizable=0;points=[];autosize=1;strokeColor=none;fillColor=none;fontSize=10;" parent="1" vertex="1">
          <mxGeometry x="355" y="400" width="80" height="30" as="geometry" />
        </mxCell>
        <mxCell id="k0Mtcrx5Jlp9DSkXlw2T-28" value="return" style="text;html=1;align=center;verticalAlign=middle;resizable=0;points=[];autosize=1;strokeColor=none;fillColor=none;" parent="1" vertex="1">
          <mxGeometry x="234" y="415" width="60" height="30" as="geometry" />
        </mxCell>
        <mxCell id="k0Mtcrx5Jlp9DSkXlw2T-34" style="edgeStyle=orthogonalEdgeStyle;rounded=0;orthogonalLoop=1;jettySize=auto;html=1;" parent="1" source="k0Mtcrx5Jlp9DSkXlw2T-29" target="k0Mtcrx5Jlp9DSkXlw2T-33" edge="1">
          <mxGeometry relative="1" as="geometry" />
        </mxCell>
        <mxCell id="k0Mtcrx5Jlp9DSkXlw2T-38" style="edgeStyle=orthogonalEdgeStyle;rounded=0;orthogonalLoop=1;jettySize=auto;html=1;entryX=0.5;entryY=0;entryDx=0;entryDy=0;" parent="1" source="k0Mtcrx5Jlp9DSkXlw2T-29" target="k0Mtcrx5Jlp9DSkXlw2T-37" edge="1">
          <mxGeometry relative="1" as="geometry" />
        </mxCell>
        <mxCell id="k0Mtcrx5Jlp9DSkXlw2T-29" value="&lt;span style=&quot;font-size: 18px;&quot;&gt;9&lt;/span&gt;" style="ellipse;whiteSpace=wrap;html=1;aspect=fixed;" parent="1" vertex="1">
          <mxGeometry x="444" y="510" width="60" height="60" as="geometry" />
        </mxCell>
        <mxCell id="k0Mtcrx5Jlp9DSkXlw2T-31" value="~(position &amp;lt; 0)" style="text;html=1;align=center;verticalAlign=middle;resizable=0;points=[];autosize=1;strokeColor=none;fillColor=none;fontSize=10;" parent="1" vertex="1">
          <mxGeometry x="429" y="470" width="90" height="30" as="geometry" />
        </mxCell>
        <mxCell id="k0Mtcrx5Jlp9DSkXlw2T-33" value="&lt;span style=&quot;font-size: 18px;&quot;&gt;10&lt;/span&gt;" style="ellipse;whiteSpace=wrap;html=1;aspect=fixed;" parent="1" vertex="1">
          <mxGeometry x="275" y="510" width="60" height="60" as="geometry" />
        </mxCell>
        <mxCell id="k0Mtcrx5Jlp9DSkXlw2T-35" value="position == nChildren" style="text;html=1;align=center;verticalAlign=middle;resizable=0;points=[];autosize=1;strokeColor=none;fillColor=none;fontSize=10;" parent="1" vertex="1">
          <mxGeometry x="335" y="510" width="120" height="30" as="geometry" />
        </mxCell>
        <mxCell id="k0Mtcrx5Jlp9DSkXlw2T-36" value="position--" style="text;html=1;align=center;verticalAlign=middle;resizable=0;points=[];autosize=1;strokeColor=none;fillColor=none;" parent="1" vertex="1">
          <mxGeometry x="210" y="525" width="80" height="30" as="geometry" />
        </mxCell>
        <mxCell id="k0Mtcrx5Jlp9DSkXlw2T-45" style="edgeStyle=orthogonalEdgeStyle;rounded=0;orthogonalLoop=1;jettySize=auto;html=1;exitX=0.5;exitY=1;exitDx=0;exitDy=0;entryX=0.5;entryY=0;entryDx=0;entryDy=0;" parent="1" source="k0Mtcrx5Jlp9DSkXlw2T-37" target="k0Mtcrx5Jlp9DSkXlw2T-44" edge="1">
          <mxGeometry relative="1" as="geometry" />
        </mxCell>
        <mxCell id="k0Mtcrx5Jlp9DSkXlw2T-37" value="&lt;span style=&quot;font-size: 18px;&quot;&gt;11&lt;/span&gt;" style="ellipse;whiteSpace=wrap;html=1;aspect=fixed;" parent="1" vertex="1">
          <mxGeometry x="444" y="620" width="60" height="60" as="geometry" />
        </mxCell>
        <mxCell id="k0Mtcrx5Jlp9DSkXlw2T-39" value="~(position == nChildren)" style="text;html=1;align=center;verticalAlign=middle;resizable=0;points=[];autosize=1;strokeColor=none;fillColor=none;fontSize=10;" parent="1" vertex="1">
          <mxGeometry x="404" y="585" width="140" height="30" as="geometry" />
        </mxCell>
        <mxCell id="k0Mtcrx5Jlp9DSkXlw2T-42" style="edgeStyle=orthogonalEdgeStyle;rounded=0;orthogonalLoop=1;jettySize=auto;html=1;exitX=0.5;exitY=1;exitDx=0;exitDy=0;entryX=0.007;entryY=0.605;entryDx=0;entryDy=0;entryPerimeter=0;" parent="1" source="k0Mtcrx5Jlp9DSkXlw2T-33" target="k0Mtcrx5Jlp9DSkXlw2T-37" edge="1">
          <mxGeometry relative="1" as="geometry" />
        </mxCell>
        <mxCell id="k0Mtcrx5Jlp9DSkXlw2T-43" value="children[position].delete(elem)" style="text;html=1;align=center;verticalAlign=middle;resizable=0;points=[];autosize=1;strokeColor=none;fillColor=none;" parent="1" vertex="1">
          <mxGeometry x="500" y="638" width="190" height="30" as="geometry" />
        </mxCell>
        <mxCell id="k0Mtcrx5Jlp9DSkXlw2T-44" value="&lt;span style=&quot;font-size: 18px;&quot;&gt;12&lt;/span&gt;" style="ellipse;whiteSpace=wrap;html=1;aspect=fixed;strokeWidth=3;" parent="1" vertex="1">
          <mxGeometry x="444" y="740" width="60" height="60" as="geometry" />
        </mxCell>
        <mxCell id="k0Mtcrx5Jlp9DSkXlw2T-47" value="compact(children)" style="text;html=1;align=center;verticalAlign=middle;resizable=0;points=[];autosize=1;strokeColor=none;fillColor=none;" parent="1" vertex="1">
          <mxGeometry x="500" y="755" width="120" height="30" as="geometry" />
        </mxCell>
      </root>
    </mxGraphModel>
  </diagram>
</mxfile>
